<?xml version="1.0" encoding="iso-8859-1"?>
<!-- Generator: Adobe Illustrator 19.0.0, SVG Export Plug-In . SVG Version: 6.00 Build 0)  -->
<svg version="1.1" id="Capa_1" xmlns="http://www.w3.org/2000/svg" xmlns:xlink="http://www.w3.org/1999/xlink" x="0px" y="0px"
	 viewBox="0 0 512 512" style="enable-background:new 0 0 512 512;" xml:space="preserve">
<g>
	<g>
		<path d="M430.035,204.089c-7.959-17.327-24.834-28.092-44.039-28.092h-71.182l63.878-112.352
			c7.761-13.176,7.889-28.96,0.328-42.272C371.419,7.99,357.694,0,342.303,0c-9.638,0-19.072,3.339-26.564,9.403
			c-0.378,0.305-0.744,0.624-1.098,0.956L98.263,213.234c-14.351,12.488-21.872,30.345-20.646,49.068
			c2.116,32.321,28.017,56.693,60.246,56.693h67.61l-68.441,131.421c-0.069,0.132-0.137,0.266-0.203,0.4
			c-9.305,18.889-3.876,40.682,13.203,52.999c7.607,5.486,16.266,8.186,24.858,8.185c10.697,0,21.289-4.186,29.599-12.389
			c0.213-0.21,0.421-0.426,0.625-0.645l154.998-167.382c7.505-8.105,7.018-20.759-1.086-28.264
			c-8.105-7.504-20.759-7.018-28.264,1.086L176.121,471.404c-0.644,0.601-1.307,0.969-2.692-0.03
			c-1.474-1.064-1.221-1.84-0.805-2.701l83.554-160.439c3.228-6.2,2.986-13.636-0.64-19.612c-3.626-5.977-10.109-9.626-17.099-9.626
			H137.865c-12.518,0-19.704-9.713-20.332-19.307c-0.291-4.446,0.709-10.901,7.127-16.4c0.226-0.195,0.449-0.394,0.667-0.599
			L341.191,40.297c0.337-0.194,0.721-0.298,1.112-0.298c0.388,0,1.295,0,1.935,1.126s0.175,1.905-0.023,2.238
			c-0.071,0.119-0.141,0.239-0.209,0.36l-80.955,142.389c-3.52,6.191-3.483,13.787,0.099,19.942
			c3.581,6.156,10.165,9.943,17.287,9.943h105.558c4.778,0,6.869,3,7.69,4.788c0.841,1.831,1.775,5.459-1.422,9.181
			c-7.196,8.379-6.238,21.007,2.141,28.203s21.006,6.238,28.203-2.141C435.181,241.389,438.026,221.488,430.035,204.089z"/>
	</g>
</g>
<g>
</g>
<g>
</g>
<g>
</g>
<g>
</g>
<g>
</g>
<g>
</g>
<g>
</g>
<g>
</g>
<g>
</g>
<g>
</g>
<g>
</g>
<g>
</g>
<g>
</g>
<g>
</g>
<g>
</g>
</svg>
