<?xml version="1.0" encoding="iso-8859-1"?>
<!-- Generator: Adobe Illustrator 19.0.0, SVG Export Plug-In . SVG Version: 6.00 Build 0)  -->
<svg version="1.1" id="Capa_1" xmlns="http://www.w3.org/2000/svg" xmlns:xlink="http://www.w3.org/1999/xlink" x="0px" y="0px"
	 viewBox="0 0 512 512" style="enable-background:new 0 0 512 512;" xml:space="preserve">
<g>
	<g>
		<g>
			<path d="M122.418,195.03l-0.917-0.023c-11.045-0.245-20.218,8.451-20.495,19.493c-0.276,11.042,8.451,20.218,19.493,20.495
				l1.088,0.026C164.824,235.858,200,271.737,200,315c0,44.112-35.888,80-80,80s-80-35.888-80-80
				c0-55.098,13.104-105.94,38.951-151.115c19.317-33.765,38.961-51.6,39.328-51.93c8.238-7.313,9.012-19.921,1.718-28.188
				c-7.309-8.281-19.946-9.072-28.229-1.765c-0.967,0.854-23.946,21.349-46.566,60.335C24.58,177.878,0,236.683,0,315
				c0,66.168,53.832,120,120,120s120-53.832,120-120c0-31.641-12.208-61.497-34.374-84.069
				C183.504,208.405,153.954,195.656,122.418,195.03z"/>
			<path d="M477.626,230.931c-22.123-22.527-51.671-35.276-83.209-35.901l-0.916-0.023c-11.009-0.245-20.218,8.451-20.495,19.493
				s8.451,20.218,19.493,20.495l1.088,0.026C436.824,235.859,472,271.738,472,315c0,44.112-35.888,80-80,80s-80-35.888-80-80
				c0-55.098,13.104-105.941,38.95-151.114c19.317-33.765,38.961-51.6,39.328-51.93c8.239-7.314,9.012-19.921,1.718-28.188
				c-7.308-8.282-19.946-9.073-28.229-1.765c-0.966,0.854-23.946,21.349-46.566,60.335C296.58,177.878,272,236.683,272,315
				c0,66.168,53.832,120,120,120s120-53.832,120-120C512,283.359,499.792,253.503,477.626,230.931z"/>
		</g>
	</g>
</g>
<g>
</g>
<g>
</g>
<g>
</g>
<g>
</g>
<g>
</g>
<g>
</g>
<g>
</g>
<g>
</g>
<g>
</g>
<g>
</g>
<g>
</g>
<g>
</g>
<g>
</g>
<g>
</g>
<g>
</g>
</svg>
