<?xml version="1.0" encoding="iso-8859-1"?>
<!-- Generator: Adobe Illustrator 19.0.0, SVG Export Plug-In . SVG Version: 6.00 Build 0)  -->
<svg version="1.1" id="Capa_1" xmlns="http://www.w3.org/2000/svg" xmlns:xlink="http://www.w3.org/1999/xlink" x="0px" y="0px"
	 viewBox="0 0 512 512" style="enable-background:new 0 0 512 512;" xml:space="preserve">
<g>
	<g>
		<path d="M506.213,283.929c-7.772-7.851-20.435-7.913-28.284-0.141L432,329.261V256c0-57.696-22.468-111.938-63.265-152.735
			C327.938,62.468,273.695,40,216,40c-35.428,0-70.382,8.721-101.458,25.269c-0.042,0.022-0.084,0.044-0.126,0.066
			c-0.088,0.047-0.176,0.094-0.264,0.142c-0.007,0.003-0.013,0.007-0.02,0.01c-0.196,0.105-0.392,0.21-0.587,0.316
			c-0.095,0.051-0.19,0.103-0.285,0.154c-0.069,0.037-0.138,0.075-0.207,0.112c-1.165,0.632-2.325,1.275-3.479,1.93
			c-0.077,0.043-0.153,0.087-0.229,0.132c-4.704,2.677-9.328,5.541-13.802,8.552c-9.164,6.167-11.594,18.596-5.427,27.759
			c3.862,5.739,10.178,8.836,16.611,8.836c3.84,0,7.723-1.104,11.147-3.409c4.937-3.322,10.097-6.425,15.337-9.224
			C158.546,87.126,187.071,80,216,80c97.047,0,176,78.953,176,176v73.734l-46.029-44.935c-7.904-7.717-20.567-7.563-28.282,0.341
			c-7.716,7.903-7.563,20.566,0.341,28.282l51.717,50.487c11.623,11.346,26.837,17.011,42.051,17.011
			c15.355,0,30.711-5.773,42.359-17.308l51.915-51.399C513.921,304.44,513.983,291.777,506.213,283.929z"/>
	</g>
</g>
<g>
	<g>
		<path d="M21.565,224.052c-11.05-0.677-20.504,7.733-21.169,18.759C0.134,247.172,0,251.609,0,256.008
			c0.001,2.932,0.061,5.892,0.177,8.797c0.433,10.764,9.294,19.198,19.971,19.198c0.27,0,0.541-0.005,0.815-0.016
			c11.036-0.443,19.625-9.749,19.183-20.786C40.05,260.823,40.001,258.397,40,256c0-3.591,0.109-7.218,0.324-10.779
			C40.989,234.196,32.591,224.718,21.565,224.052z"/>
	</g>
</g>
<g>
	<g>
		<path d="M65.994,348.108c-3.13-5.083-6.026-10.377-8.611-15.735c-4.798-9.948-16.752-14.126-26.702-9.325
			c-9.949,4.798-14.124,16.753-9.325,26.702c3.175,6.583,6.732,13.085,10.573,19.325c3.778,6.139,10.336,9.52,17.051,9.52
			c3.576,0,7.196-0.959,10.465-2.971C68.852,369.834,71.784,357.515,65.994,348.108z"/>
	</g>
</g>
<g>
	<g>
		<path d="M216,432c-5.986,0-12.023-0.304-17.942-0.901c-10.976-1.117-20.799,6.896-21.909,17.887
			c-1.111,10.99,6.897,20.8,17.888,21.91c7.25,0.733,14.64,1.104,21.964,1.104h0.004c11.046,0,19.998-8.954,19.998-20
			C236.003,440.954,227.046,432,216,432z"/>
	</g>
</g>
<g>
	<g>
		<path d="M130.087,409.646c-5.199-2.914-10.311-6.133-15.191-9.564c-9.037-6.354-21.511-4.18-27.864,4.856
			c-6.354,9.035-4.179,21.511,4.856,27.864c5.988,4.211,12.26,8.159,18.641,11.736c3.094,1.734,6.449,2.558,9.761,2.558
			c7.001,0,13.798-3.684,17.465-10.225C143.154,427.237,139.723,415.048,130.087,409.646z"/>
	</g>
</g>
<g>
	<g>
		<path d="M61.931,133.194c-9.285-5.979-21.663-3.302-27.644,5.985c-3.97,6.163-7.661,12.593-10.971,19.11
			c-5.003,9.849-1.074,21.887,8.773,26.889c2.902,1.475,5.995,2.173,9.042,2.173c7.29,0,14.319-4.001,17.847-10.946
			c2.696-5.308,5.703-10.545,8.938-15.567C73.896,151.551,71.217,139.175,61.931,133.194z"/>
	</g>
</g>
<g>
</g>
<g>
</g>
<g>
</g>
<g>
</g>
<g>
</g>
<g>
</g>
<g>
</g>
<g>
</g>
<g>
</g>
<g>
</g>
<g>
</g>
<g>
</g>
<g>
</g>
<g>
</g>
<g>
</g>
</svg>
