<?xml version="1.0" standalone="no"?><!-- Generator: Gravit.io --><svg xmlns="http://www.w3.org/2000/svg" xmlns:xlink="http://www.w3.org/1999/xlink" style="isolation:isolate" viewBox="0 0 511 511" width="511" height="511"><defs><clipPath id="_clipPath_y2y8boGlAJ1lAT3T4cIfPI794SjkcygS"><rect width="511" height="511"/></clipPath></defs><g clip-path="url(#_clipPath_y2y8boGlAJ1lAT3T4cIfPI794SjkcygS)"><g id="Group"><g id="Group"><path d=" M 414.582 410.562 C 405.394 403.672 403.898 397.175 407.117 386.445 C 418.383 359.62 427.591 348.189 431.157 295.417 C 431.157 284.393 440.094 275.458 451.118 275.458 C 462.143 275.458 471.079 284.397 471.079 295.421 C 468.558 345.676 457.648 375.535 443.292 401.949 C 436.976 414.007 424.917 416.304 414.582 410.562 Z " fill="rgb(0,0,0)"/></g></g><g id="Group"><g id="Group"><path d=" M 103.064 142.984 C 143.781 102.267 197.917 79.843 255.5 79.843 L 328.619 79.843 L 283.234 34.005 C 275.478 26.17 275.541 13.532 283.375 5.776 C 291.21 -1.98 303.847 -1.917 311.604 5.916 L 362.904 57.73 C 385.82 80.876 385.952 118.669 363.199 141.976 L 312.81 193.593 C 308.899 197.6 303.715 199.61 298.525 199.61 C 293.498 199.61 288.465 197.721 284.583 193.933 C 276.694 186.232 276.542 173.595 284.243 165.706 L 329.09 119.765 L 255.5 119.765 C 158.643 119.765 79.844 198.564 79.844 295.421 C 80.964 358.883 130.082 468.852 250.667 470 C 285.694 468.852 297.343 468.56 334.667 451.333 C 346.066 447.058 356 445.333 364.667 456 C 370.667 466 365.894 475.589 355.227 481.589 C 338.575 490.776 308.273 508.092 252 508.667 C 117.634 508.092 69.348 404.253 67.866 401.64 C 49.585 369.408 39.922 332.679 39.922 295.421 C 39.922 237.838 62.346 183.702 103.064 142.984 Z " fill="rgb(0,0,0)"/></g></g></g></svg>