<?xml version="1.0" encoding="iso-8859-1"?>
<!-- Generator: Adobe Illustrator 19.0.0, SVG Export Plug-In . SVG Version: 6.00 Build 0)  -->
<svg version="1.1" id="Capa_1" xmlns="http://www.w3.org/2000/svg" xmlns:xlink="http://www.w3.org/1999/xlink" x="0px" y="0px"
	 viewBox="0 0 511.999 511.999" style="enable-background:new 0 0 511.999 511.999;" xml:space="preserve">
<g>
	<g>
		<g>
			<path d="M434.014,25.877c-9.556-9.525-20.821-17.532-33.484-23.797c-6.188-3.061-13.518-2.709-19.382,0.933
				c-5.865,3.641-9.432,10.054-9.432,16.958v86.723l-29.656,18.482l-29.229-18.42V19.96c0-6.898-3.562-13.307-9.42-16.95
				c-5.858-3.642-13.181-4.003-19.368-0.953c-13.489,6.649-24.986,14.663-34.173,23.82C225.74,49.93,209.2,81.566,204.492,112.675
				c-5.67,37.454,5.199,72.027,30.605,97.351c10.306,10.271,28.551,21.334,46.795,26.999v214.092
				c-0.001,15.982,6.142,30.994,17.298,42.272c11.238,11.359,26.266,17.615,42.309,17.614h0.011c16.012,0,31.072-6.22,42.404-17.515
				c11.446-11.408,17.746-26.455,17.743-42.371c-0.002-11.022-8.939-19.956-19.961-19.956h-0.004
				c-11.024,0.003-19.959,8.942-19.957,19.965c0.001,5.225-2.132,10.227-6.003,14.087c-3.798,3.785-8.848,5.869-14.228,5.869H341.5
				c-5.302,0-10.249-2.047-13.93-5.769c-3.713-3.753-5.757-8.794-5.757-14.194V220.794c0-10.49-8.121-19.19-18.587-19.913
				c-12.351-0.853-31.953-11.164-39.947-19.132c-16.174-16.123-23.035-38.533-19.315-63.101c3.121-20.62,13.55-41.782,28.944-59.056
				v58.175c0,6.856,3.518,13.232,9.318,16.887l49.131,30.963c6.472,4.08,14.707,4.1,21.201,0.054l49.676-30.96
				c5.849-3.646,9.404-10.049,9.404-16.941V60.349c18.243,20.856,28.943,47.114,28.943,71.695c0,13.591-3.466,33.248-19.976,49.704
				c-8.239,8.211-27.856,18.59-39.858,19.161c-10.643,0.507-19.012,9.284-19.012,19.939v129.466
				c0,11.024,8.937,19.961,19.961,19.961c11.023,0,19.961-8.938,19.961-19.961V237.247c18.217-5.563,36.58-16.705,47.131-27.223
				c20.747-20.68,31.715-47.644,31.715-77.978C480.503,94.581,463.124,54.893,434.014,25.877z"/>
			<path d="M153.506,124.371c4.866-4.938,6.82-12.048,5.162-18.78l-21.957-89.16c-2.197-8.92-10.196-15.188-19.382-15.188H73.414
				c-9.186,0-17.185,6.269-19.382,15.188l-21.957,89.16c-1.658,6.732,0.296,13.842,5.162,18.78l39.171,39.765v96.028
				c-23.236,8.239-39.922,30.44-39.922,56.462v135.486c-0.004,15.997,6.225,31.035,17.539,42.35
				C65.335,505.772,80.368,512,96.354,511.999c0.005-0.001,0.012,0,0.017,0c15.997,0,31.034-6.229,42.344-17.538
				c11.311-11.311,17.54-26.352,17.538-42.347V316.627c0-15.997-6.23-31.034-17.541-42.345
				c-6.426-6.426-14.057-11.212-22.381-14.146V162.11L153.506,124.371z M116.33,316.627v135.489
				c0.001,5.334-2.075,10.347-5.845,14.116c-3.769,3.769-8.781,5.845-14.119,5.845H96.36c-5.328,0-10.338-2.076-14.106-5.845
				c-3.77-3.771-5.846-8.781-5.845-14.114V316.627c0-11.005,8.954-19.96,19.96-19.961c5.332,0,10.345,2.076,14.115,5.846
				c3.77,3.772,5.847,8.784,5.847,14.115H116.33z M95.372,126.498l-21.864-22.196l15.549-63.139h12.63l15.55,63.139L95.372,126.498z
				"/>
		</g>
	</g>
</g>
<g>
</g>
<g>
</g>
<g>
</g>
<g>
</g>
<g>
</g>
<g>
</g>
<g>
</g>
<g>
</g>
<g>
</g>
<g>
</g>
<g>
</g>
<g>
</g>
<g>
</g>
<g>
</g>
<g>
</g>
</svg>
