<?xml version="1.0" encoding="iso-8859-1"?>
<!-- Generator: Adobe Illustrator 19.0.0, SVG Export Plug-In . SVG Version: 6.00 Build 0)  -->
<svg version="1.1" id="Capa_1" xmlns="http://www.w3.org/2000/svg" xmlns:xlink="http://www.w3.org/1999/xlink" x="0px" y="0px"
	 viewBox="0 0 512.001 512.001" style="enable-background:new 0 0 512.001 512.001;" xml:space="preserve">
<g>
	<g>
		<path d="M451.257,114.484l-0.254-0.983c21.693-13.005,39.209-34.444,47-59c-20.318,12.087-44.092,21.257-67.999,26
			c-19.172-20.426-44.752-33-74.999-33c-57.975,0-105.999,46.937-105.999,104.999c0,8.899,0.732,17.516,1.713,25.064
			c-51.047-3.967-99.013-20.531-142.884-49.39C69.53,102.979,48.882,77.332,48.707,77.113c-5.624-7.128-15.348-9.575-23.671-5.955
			c-8.328,3.618-13.173,12.392-11.801,21.367c0.473,3.09,10.187,64.021,46.871,117.276c-8.883-1.555-14.246-4.188-15.213-4.689
			c-7.159-4.34-16.039-3.62-22.594,1.607c-6.589,5.252-8.939,14.212-6.238,22.194c0.89,2.63,19.521,55.415,85.376,82.474
			c-9.336,2.997-16.845,3.117-17.973,3.117h-0.02c-8.196-0.324-15.612,4.427-18.917,11.951c-3.313,7.547-1.494,16.359,4.334,22.188
			c1.243,1.243,24.467,23.972,69.204,35.442c-16.398,9.121-35.801,14.607-58.047,16.385c-30.512,2.437-55.053-3.345-55.251-3.393
			c-10.143-2.486-20.493,3.248-23.761,13.167c-3.268,9.919,1.648,20.683,11.284,24.71c2.887,1.206,71.484,29.546,139.711,29.546
			c47.361,0,82.831-4.314,115.007-13.987c40.156-12.072,74.242-32.662,104.208-62.945c7.769-7.852,7.702-20.515-0.149-28.284
			c-7.854-7.771-20.516-7.703-28.284,0.149C289.35,413.435,227.872,424.5,152.004,424.5c-1.777,0-3.556-0.023-5.337-0.067
			c21.165-9.716,39.314-23.571,53.807-41.256c4.832-5.897,5.892-14.029,2.73-20.967c-3.16-6.938-9.991-11.476-17.612-11.7
			c-21.374-0.629-38.813-4.704-52.39-9.671c10.066-5.724,20.177-13.837,28.802-25.337c4.163-5.551,5.151-12.863,2.612-19.32
			c-2.54-6.457-8.244-11.136-15.073-12.364c-33.338-5.993-55.741-19.532-70.43-32.96c8.179-0.359,17.13-1.549,26.742-3.953
			c7.055-1.764,12.597-7.217,14.473-14.243c1.876-7.026-0.209-14.516-5.445-19.562c-18.128-17.469-31.307-39.115-40.73-59.539
			c3.288,2.355,6.718,4.728,10.282,7.097c39.702,26.388,104.992,57.843,190.569,57.843c6.224,0,12.088-2.911,15.872-7.851
			c3.785-4.94,5.051-11.375,3.431-17.383c-0.053-0.197-5.303-19.911-5.303-40.766c0-17.224,6.872-33.488,19.35-45.797
			c12.554-12.383,29.121-19.203,46.65-19.203c17.723,0,33.145,6.855,45.835,20.375c9.165,8.625,19.165,31.625,19.165,45.506v12.119
			c0,0.411,0.041,0.97,0.139,1.636c-0.091,0.775-0.139,1.564-0.139,2.364c0,45.464-8.414,85.939-25.01,120.301
			c-4.804,9.946-0.635,21.904,9.313,26.708c2.803,1.354,5.765,1.995,8.683,1.995c7.435,0,14.574-4.164,18.024-11.307
			c19.236-39.832,28.99-86.159,28.99-137.697c0-0.772-0.044-1.533-0.129-2.282c0.091-0.673,0.129-1.257,0.129-1.718v-14
			c20.547-14.841,37.945-34.886,52-56C512.002,95.501,475.136,112.97,451.257,114.484z"/>
	</g>
</g>
<g>
</g>
<g>
</g>
<g>
</g>
<g>
</g>
<g>
</g>
<g>
</g>
<g>
</g>
<g>
</g>
<g>
</g>
<g>
</g>
<g>
</g>
<g>
</g>
<g>
</g>
<g>
</g>
<g>
</g>
</svg>
