<?xml version="1.0" encoding="UTF-8" standalone="no"?>
<!DOCTYPE svg PUBLIC "-//W3C//DTD SVG 1.1//EN" "http://www.w3.org/Graphics/SVG/1.1/DTD/svg11.dtd">
<svg version="1.1" xmlns="http://www.w3.org/2000/svg" xmlns:xlink="http://www.w3.org/1999/xlink" preserveAspectRatio="xMidYMid meet" viewBox="60 0 560 640" width="500" height="640"><defs><path d="M590.63 315.56C587.42 563.21 468.98 619.27 319.15 619.27C295.17 619.27 271.84 617.69 249.57 614.05C212.15 607.93 177.72 595.99 148.3 575.92C130.28 563.62 108.91 537.4 99.01 520.06C92.42 508.51 89.12 502.73 89.12 502.73C190.76 492.06 249.01 485.05 263.86 481.68C286.13 476.63 388.67 435.59 406.36 422.61C412.47 418.13 451.27 343.95 447.33 336.09C443.39 328.23 320.29 259.92 314.53 253.88C308.77 247.85 299.03 227.06 286.42 220.72C278.02 216.49 242.71 212.08 180.5 207.48C168.94 188.91 158.37 180.2 148.79 181.33C139.21 182.46 131.6 191.7 125.94 209.06L66.92 209.25C74.1 174.38 79.99 151.23 84.58 139.8C91.47 122.66 113.6 85.69 152.01 58.17C174.94 41.73 200.51 30.41 227.53 23.08C256.87 15.12 287.93 11.86 319.15 11.86C454.89 11.86 593.85 67.91 590.63 315.56Z" id="feZmVS0sg"></path></defs><g visibility="inherit"><g visibility="inherit"><g visibility="inherit"><use xlink:href="#feZmVS0sg" opacity="1" fill="#2b363b" fill-opacity="1"></use></g></g></g></svg>
