<?xml version="1.0" encoding="iso-8859-1"?>
<!-- Generator: Adobe Illustrator 19.0.0, SVG Export Plug-In . SVG Version: 6.00 Build 0)  -->
<svg version="1.1" id="Capa_1" xmlns="http://www.w3.org/2000/svg" xmlns:xlink="http://www.w3.org/1999/xlink" x="0px" y="0px"
	 viewBox="0 0 512 512" style="enable-background:new 0 0 512 512;" xml:space="preserve">
<g>
	<g>
		<path d="M491.32,22.874C461.58-6.865,417.142-1.428,386.303,5.247c-40.174,8.697-89.451,27.66-146.509,49.617
			c-5.864,2.257-11.819,4.549-17.866,6.869c-0.237,0.091-0.473,0.187-0.706,0.286c-2.148,0.92-52.936,22.724-82.381,40.883
			C51.774,156.596,33.233,228.26,33.01,278.922c-0.11,25.135,4.203,50.808,12.812,76.491C16.396,405.517,0.012,453.31,0.012,492.001
			C0.012,503.046,8.965,512,20.011,512c11.046,0,19.999-8.954,19.999-19.999c0-24.007,9.422-59.842,32.771-103.087
			c9.075,4.951,21.994,10.786,38.36,15.111c12.772,3.374,28.791,6.055,47.459,6.055c25.164,0,55.138-4.875,88.414-19.49
			c14.672-6.444,29.025-14.075,42.66-22.684c9.34-5.896,12.131-18.247,6.235-27.588c-5.897-9.341-18.246-12.129-27.588-6.235
			c-11.956,7.549-24.537,14.238-37.393,19.885c-37.338,16.399-73.584,20.391-107.733,11.857
			c-12.742-3.184-22.836-7.616-29.805-11.289c13.239-20.132,29.27-41.427,48.466-63.539
			c55.977-64.477,157.607-156.734,325.877-234.083c5.871,9.238,7.462,23.779-7.185,52.368
			c-7.539,14.715-18.144,30.768-30.856,48.139c-0.398,0.157-0.798,0.303-1.19,0.487c-22.983,10.774-68.306,13.839-83.841,14.111
			c-11.044,0.184-19.848,9.286-19.663,20.329c0.182,10.932,9.1,19.666,19.989,19.666c0.113,0,0.227-0.001,0.34-0.003
			c3.584-0.06,22.632-0.513,44.868-3.553c-3.177,3.984-6.404,8.02-9.674,12.108c-8.547,10.69-17.349,21.711-26.239,33.009
			c-29.408,6.619-58.759,9.313-91.759,8.444c-0.18-0.005-0.358-0.007-0.536-0.007c-10.801,0-19.696,8.611-19.982,19.473
			c-0.29,11.042,8.425,20.228,19.466,20.519c4.386,0.115,8.713,0.174,12.991,0.174c33.907,0,64.711-3.647,95.968-11.305
			c0.195-0.048,0.379-0.118,0.571-0.171c0.383-0.106,0.765-0.213,1.142-0.342c0.27-0.092,0.53-0.197,0.793-0.3
			c0.345-0.134,0.688-0.27,1.027-0.424c0.276-0.125,0.543-0.263,0.812-0.4c0.31-0.158,0.618-0.318,0.92-0.494
			c0.275-0.159,0.541-0.33,0.807-0.501c0.279-0.18,0.556-0.36,0.827-0.555s0.532-0.401,0.792-0.609
			c0.247-0.197,0.493-0.393,0.731-0.603c0.269-0.236,0.523-0.483,0.778-0.732c0.211-0.207,0.424-0.411,0.628-0.629
			c0.263-0.281,0.508-0.575,0.754-0.87c0.134-0.161,0.279-0.306,0.409-0.472c10.244-13.091,20.46-25.87,30.341-38.227
			c35.728-44.687,66.585-83.281,84.384-118.025c10.385-20.269,15.562-37.915,15.829-53.945
			C512.306,53.965,505.355,36.908,491.32,22.874z M111.655,264.775c-13.043,15.025-25.106,30.204-36.1,45.357
			c-1.738-10.458-2.591-20.82-2.546-31.034c0.239-54.635,25.365-99.705,74.694-134.17c-0.089,0.222-0.177,0.437-0.266,0.661
			c-4.103,10.255,0.886,21.894,11.141,25.996c2.437,0.975,4.948,1.436,7.422,1.436c7.937,0,15.446-4.758,18.574-12.576
			c8.997-22.49,15.128-33.107,24.349-49.009c14.199-6.65,25.626-11.604,27.706-12.5c5.932-2.276,11.775-4.525,17.531-6.74
			c60.588-23.317,113.519-43.683,152.287-50.065C257.969,117.649,165.067,203.249,111.655,264.775z"/>
	</g>
</g>
<g>
</g>
<g>
</g>
<g>
</g>
<g>
</g>
<g>
</g>
<g>
</g>
<g>
</g>
<g>
</g>
<g>
</g>
<g>
</g>
<g>
</g>
<g>
</g>
<g>
</g>
<g>
</g>
<g>
</g>
</svg>
