<?xml version="1.0" encoding="iso-8859-1"?>
<!-- Generator: Adobe Illustrator 19.0.0, SVG Export Plug-In . SVG Version: 6.00 Build 0)  -->
<svg version="1.1" id="Capa_1" xmlns="http://www.w3.org/2000/svg" xmlns:xlink="http://www.w3.org/1999/xlink" x="0px" y="0px"
	 viewBox="0 0 512 512" style="enable-background:new 0 0 512 512;" xml:space="preserve">
<g>
	<g>
		<path d="M492,376c-11.046,0-20,8.954-20,20c0,22.056-17.944,40-40,40H279.335l-45.985-59.656l145.147-184.618l98.066,116.991
			c0.195,0.236,0.395,0.468,0.6,0.694c0.007,0.008,0.014,0.016,0.021,0.024c0.024,0.027,0.049,0.054,0.074,0.081
			c1.821,1.989,3.961,3.53,6.276,4.609c2.378,1.112,5.012,1.77,7.788,1.862c0.051,0.002,0.102,0.004,0.153,0.005
			c0.009,0,0.018,0,0.026,0.001c1.429,0.036,2.863-0.08,4.276-0.35l0.053-0.01c0.062-0.012,0.124-0.024,0.187-0.037
			c0.025-0.005,0.051-0.011,0.077-0.016c0.054-0.011,0.108-0.022,0.162-0.034c0.03-0.007,0.06-0.013,0.09-0.02
			c0.049-0.011,0.098-0.022,0.147-0.033c0.035-0.008,0.07-0.016,0.104-0.025c0.044-0.01,0.088-0.021,0.132-0.031
			c0.038-0.009,0.075-0.019,0.113-0.028c0.041-0.01,0.083-0.021,0.124-0.031c0.038-0.01,0.075-0.02,0.113-0.03
			c0.042-0.011,0.083-0.022,0.125-0.033c0.038-0.01,0.076-0.021,0.114-0.031l0.117-0.032c0.041-0.012,0.082-0.024,0.123-0.035
			c0.04-0.011,0.079-0.023,0.118-0.034c0.032-0.009,0.064-0.019,0.097-0.029c0.049-0.015,0.099-0.03,0.147-0.045
			c0.027-0.008,0.054-0.017,0.08-0.025c0.05-0.015,0.099-0.031,0.149-0.047c0.03-0.01,0.06-0.02,0.09-0.03
			c0.049-0.016,0.099-0.033,0.148-0.049c0.023-0.008,0.046-0.016,0.069-0.023c0.055-0.019,0.111-0.038,0.166-0.057
			c0.021-0.007,0.042-0.015,0.063-0.022c0.057-0.02,0.113-0.04,0.169-0.061c0.018-0.007,0.036-0.013,0.054-0.02
			c0.062-0.023,0.123-0.045,0.184-0.069l0.031-0.012c0.068-0.026,0.136-0.052,0.204-0.079c0.004-0.001,0.008-0.003,0.012-0.005
			c0.073-0.029,0.146-0.058,0.219-0.088c0.889-0.363,1.759-0.794,2.603-1.293c0.012-0.007,0.024-0.014,0.036-0.021
			c0.057-0.034,0.114-0.068,0.171-0.102c1.078-0.655,2.089-1.409,3.021-2.25c0.017-0.015,0.033-0.03,0.05-0.045
			c0.015-0.014,0.03-0.028,0.045-0.041c2.005-1.829,3.558-3.981,4.643-6.311c1.115-2.387,1.773-5.03,1.861-7.818
			c0.001-0.036,0.002-0.071,0.003-0.107c0-0.023,0.001-0.046,0.001-0.068c0.001-0.068,0.003-0.137,0.004-0.205
			c0-0.002,0-0.003,0-0.005c0.001-0.105,0.001-0.211,0.001-0.317V116c0-44.112-35.888-80-80-80H80C35.888,36,0,71.887,0,116v280
			c0,44.112,35.888,80,80,80h189.374c0.047,0,0.094,0.001,0.141,0.001c0.063,0,0.125,0,0.188-0.001H432c44.112,0,80-35.888,80-80
			C512,384.953,503.046,376,492,376z M80,436c-22.056,0-40-17.944-40-40V116c0-22.056,17.944-40,40-40h352c22.056,0,40,17.944,40,40
			v125.007l-78.673-93.855c-3.87-4.618-9.603-7.241-15.64-7.15c-6.024,0.094-11.686,2.9-15.409,7.636L208.16,343.664l-52.32-67.875
			c-3.786-4.913-9.638-7.79-15.84-7.79h-0.01c-6.206,0.003-12.059,2.887-15.843,7.806l-44.015,57.219
			c-6.734,8.755-5.097,21.312,3.658,28.047c8.757,6.735,21.313,5.097,28.047-3.658l28.179-36.633L228.832,436H80z"/>
	</g>
</g>
<g>
	<g>
		<path d="M140,108c-33.084,0-60,26.916-60,60s26.916,60,60,60s60-26.916,60-60S173.084,108,140,108z M140,188
			c-11.028,0-20-8.972-20-20s8.972-20,20-20s20,8.972,20,20S151.028,188,140,188z"/>
	</g>
</g>
<g>
</g>
<g>
</g>
<g>
</g>
<g>
</g>
<g>
</g>
<g>
</g>
<g>
</g>
<g>
</g>
<g>
</g>
<g>
</g>
<g>
</g>
<g>
</g>
<g>
</g>
<g>
</g>
<g>
</g>
</svg>
