<?xml version="1.0" encoding="iso-8859-1"?>
<!-- Generator: Adobe Illustrator 19.0.0, SVG Export Plug-In . SVG Version: 6.00 Build 0)  -->
<svg version="1.1" id="Capa_1" xmlns="http://www.w3.org/2000/svg" xmlns:xlink="http://www.w3.org/1999/xlink" x="0px" y="0px"
	 viewBox="0 0 512 512" style="enable-background:new 0 0 512 512;" xml:space="preserve">
<g>
	<g>
		<path d="M494.469,213.589L319.176,37.864c-7.802-7.821-20.465-7.835-28.286-0.035c-7.82,7.801-7.836,20.465-0.035,28.285
			l175.311,175.744c7.797,7.798,7.797,20.487-0.018,28.302L290.855,445.886c-7.8,7.82-7.785,20.484,0.035,28.285
			c3.904,3.894,9.016,5.84,14.126,5.84c5.126,0,10.253-1.959,14.161-5.876l175.275-175.707
			C517.846,275.033,517.846,236.966,494.469,213.589z"/>
	</g>
</g>
<g>
	<g>
		<path d="M383.019,235.999H20.001C8.954,235.999,0,244.954,0,256s8.954,20.001,20.001,20.001h363.018
			c11.047,0,20.001-8.954,20.001-20.001S394.066,235.999,383.019,235.999z"/>
	</g>
</g>
<g>
</g>
<g>
</g>
<g>
</g>
<g>
</g>
<g>
</g>
<g>
</g>
<g>
</g>
<g>
</g>
<g>
</g>
<g>
</g>
<g>
</g>
<g>
</g>
<g>
</g>
<g>
</g>
<g>
</g>
</svg>
